<mxfile host="app.diagrams.net" modified="2021-08-24T12:46:20.483Z" agent="5.0 (Windows NT 10.0; Win64; x64) AppleWebKit/537.36 (KHTML, like Gecko) Chrome/92.0.4515.131 Safari/537.36" etag="1gHWUXoXp4ZaW-F1VbiU" version="14.9.8" type="github">
  <diagram id="C5RBs43oDa-KdzZeNtuy" name="Page-1">
    <mxGraphModel dx="1543" dy="377" grid="1" gridSize="10" guides="1" tooltips="1" connect="1" arrows="1" fold="1" page="1" pageScale="1" pageWidth="827" pageHeight="1169" math="0" shadow="0">
      <root>
        <mxCell id="WIyWlLk6GJQsqaUBKTNV-0" />
        <mxCell id="WIyWlLk6GJQsqaUBKTNV-1" parent="WIyWlLk6GJQsqaUBKTNV-0" />
        <mxCell id="1Tl8ByBlkeMaJVgosmTW-3" value="&lt;font style=&quot;vertical-align: inherit&quot;&gt;&lt;font style=&quot;vertical-align: inherit&quot;&gt;fs&lt;/font&gt;&lt;/font&gt;" style="shape=umlFrame;whiteSpace=wrap;html=1;fillColor=#ffe6cc;strokeColor=#d79b00;" vertex="1" parent="WIyWlLk6GJQsqaUBKTNV-1">
          <mxGeometry x="-810" y="50" width="270" height="200" as="geometry" />
        </mxCell>
        <mxCell id="1Tl8ByBlkeMaJVgosmTW-4" value="dispatch" style="html=1;verticalAlign=bottom;endArrow=block;" edge="1" parent="WIyWlLk6GJQsqaUBKTNV-1">
          <mxGeometry width="80" relative="1" as="geometry">
            <mxPoint x="-530" y="349" as="sourcePoint" />
            <mxPoint x="-290" y="349" as="targetPoint" />
          </mxGeometry>
        </mxCell>
        <mxCell id="1Tl8ByBlkeMaJVgosmTW-5" value="&lt;font style=&quot;vertical-align: inherit&quot;&gt;&lt;font style=&quot;vertical-align: inherit&quot;&gt;enc&lt;/font&gt;&lt;/font&gt;" style="shape=umlFrame;whiteSpace=wrap;html=1;fillColor=#ffe6cc;strokeColor=#d79b00;" vertex="1" parent="WIyWlLk6GJQsqaUBKTNV-1">
          <mxGeometry x="-290" y="250" width="270" height="200" as="geometry" />
        </mxCell>
        <mxCell id="1Tl8ByBlkeMaJVgosmTW-6" value="frame stream on" style="html=1;" vertex="1" parent="WIyWlLk6GJQsqaUBKTNV-1">
          <mxGeometry x="-780" y="290" width="90" height="30" as="geometry" />
        </mxCell>
        <mxCell id="1Tl8ByBlkeMaJVgosmTW-7" value="group_tick" style="html=1;verticalAlign=bottom;endArrow=block;" edge="1" parent="WIyWlLk6GJQsqaUBKTNV-1">
          <mxGeometry width="80" relative="1" as="geometry">
            <mxPoint x="-690" y="304.58" as="sourcePoint" />
            <mxPoint x="-610" y="304.58" as="targetPoint" />
          </mxGeometry>
        </mxCell>
        <mxCell id="1Tl8ByBlkeMaJVgosmTW-46" value="update" style="html=1;" vertex="1" parent="WIyWlLk6GJQsqaUBKTNV-1">
          <mxGeometry x="-610" y="290" width="90" height="30" as="geometry" />
        </mxCell>
        <mxCell id="1Tl8ByBlkeMaJVgosmTW-47" value="write_msg/sem_post(sem)" style="html=1;verticalAlign=bottom;endArrow=block;" edge="1" parent="WIyWlLk6GJQsqaUBKTNV-1">
          <mxGeometry width="80" relative="1" as="geometry">
            <mxPoint x="-565.2" y="319.90000000000003" as="sourcePoint" />
            <mxPoint x="-565.2" y="380.1" as="targetPoint" />
          </mxGeometry>
        </mxCell>
        <mxCell id="1Tl8ByBlkeMaJVgosmTW-48" value="sem_wait(sem)" style="html=1;" vertex="1" parent="WIyWlLk6GJQsqaUBKTNV-1">
          <mxGeometry x="-610" y="380" width="90" height="30" as="geometry" />
        </mxCell>
        <mxCell id="1Tl8ByBlkeMaJVgosmTW-49" value="read_msg" style="html=1;" vertex="1" parent="WIyWlLk6GJQsqaUBKTNV-1">
          <mxGeometry x="-610" y="470" width="90" height="30" as="geometry" />
        </mxCell>
        <mxCell id="1Tl8ByBlkeMaJVgosmTW-50" value="dispatch" style="html=1;verticalAlign=bottom;endArrow=block;" edge="1" parent="WIyWlLk6GJQsqaUBKTNV-1">
          <mxGeometry width="80" relative="1" as="geometry">
            <mxPoint x="-565.2" y="410" as="sourcePoint" />
            <mxPoint x="-565.2" y="470" as="targetPoint" />
          </mxGeometry>
        </mxCell>
        <mxCell id="1Tl8ByBlkeMaJVgosmTW-51" value="dispatch" style="html=1;verticalAlign=bottom;endArrow=block;" edge="1" parent="WIyWlLk6GJQsqaUBKTNV-1">
          <mxGeometry width="80" relative="1" as="geometry">
            <mxPoint x="-610" y="484.65999999999997" as="sourcePoint" />
            <mxPoint x="-685" y="485" as="targetPoint" />
          </mxGeometry>
        </mxCell>
        <mxCell id="1Tl8ByBlkeMaJVgosmTW-52" value="OnDataUpdate" style="html=1;" vertex="1" parent="WIyWlLk6GJQsqaUBKTNV-1">
          <mxGeometry x="-790" y="470" width="100" height="30" as="geometry" />
        </mxCell>
        <mxCell id="1Tl8ByBlkeMaJVgosmTW-53" value="dispatch" style="html=1;verticalAlign=bottom;endArrow=block;" edge="1" parent="WIyWlLk6GJQsqaUBKTNV-1">
          <mxGeometry width="80" relative="1" as="geometry">
            <mxPoint x="-740.24" y="470" as="sourcePoint" />
            <mxPoint x="-740.24" y="400" as="targetPoint" />
          </mxGeometry>
        </mxCell>
        <mxCell id="1Tl8ByBlkeMaJVgosmTW-54" value="NotifyObservers" style="html=1;" vertex="1" parent="WIyWlLk6GJQsqaUBKTNV-1">
          <mxGeometry x="-790" y="370" width="100" height="30" as="geometry" />
        </mxCell>
      </root>
    </mxGraphModel>
  </diagram>
</mxfile>
